<svg xmlns="http://www.w3.org/2000/svg" xmlns:xlink="http://www.w3.org/1999/xlink" width="500" zoomAndPan="magnify" viewBox="0 0 375 374.999991" height="500" preserveAspectRatio="xMidYMid meet" version="1.0"><defs><g/><clipPath id="4a714fc570"><path d="M 58.574219 54.378906 L 337.574219 54.378906 L 337.574219 320.628906 L 58.574219 320.628906 Z M 58.574219 54.378906 " clip-rule="nonzero"/></clipPath><clipPath id="d3f53fd98c"><path d="M 336.898438 195.214844 C 336.363281 193.566406 335.265625 192.5625 334.097656 192.117188 C 332.636719 191.554688 331.023438 191.917969 329.457031 192.34375 C 329.425781 192.066406 329.367188 191.800781 329.28125 191.542969 C 328.875 190.328125 327.925781 189.929688 327.011719 189.949219 C 325.019531 189.996094 322.914062 191.148438 321.125 192.789062 C 320.277344 193.5625 319.523438 194.464844 318.847656 195.484375 C 318.148438 196.503906 317.535156 197.636719 317.003906 198.875 C 315.976562 201.328125 315.066406 204.09375 314.597656 206.824219 C 312.082031 208.105469 309.476562 209.292969 306.890625 210.042969 L 306.890625 208.75 C 312.375 203.351562 316.613281 195.3125 318.558594 186.625 L 318.78125 185.523438 C 320.480469 184.484375 322.128906 182.851562 323.488281 180.984375 C 324.949219 178.957031 326.097656 176.652344 326.679688 173.867188 C 327.308594 170.855469 327.394531 167.613281 326.726562 164.78125 C 326.449219 163.558594 325.910156 162.339844 325.027344 161.972656 C 324.738281 161.855469 324.445312 161.835938 324.160156 161.894531 C 323.613281 158.359375 322.714844 154.601562 320.167969 153.378906 C 317.664062 152.179688 315.148438 154.910156 314.378906 158.390625 C 314 160.175781 313.878906 161.984375 314.015625 163.773438 C 313.164062 163.703125 312.324219 164.085938 311.644531 165.230469 C 310.449219 167.261719 310.316406 170.429688 310.703125 172.773438 C 311.101562 175.453125 312.050781 177.644531 313.28125 179.648438 C 314.515625 181.671875 315.824219 183.496094 317.378906 184.996094 C 317.167969 186.066406 316.933594 187.125 316.65625 188.175781 C 316.363281 189.226562 316.039062 190.265625 315.691406 191.289062 C 315.339844 192.3125 314.964844 193.320312 314.5625 194.304688 C 314.148438 195.292969 313.6875 196.257812 313.214844 197.199219 C 311.503906 200.667969 309.285156 203.792969 306.890625 206.347656 L 306.890625 186.96875 C 307.03125 186.785156 307.171875 186.601562 307.308594 186.414062 C 307.785156 185.734375 308.242188 185.03125 308.683594 184.308594 C 309.742188 182.558594 310.765625 180.699219 311.652344 178.792969 C 312.113281 177.828125 311.578125 176.882812 310.84375 177.207031 C 309.5 177.804688 308.183594 178.53125 306.890625 179.367188 L 306.890625 147.15625 C 307.160156 146.914062 307.421875 146.664062 307.683594 146.398438 C 309.738281 144.285156 311.535156 141.484375 312.945312 138.472656 C 313.796875 136.648438 314.5625 134.726562 315.265625 132.777344 C 315.613281 131.792969 314.980469 130.925781 314.285156 131.324219 C 311.949219 132.65625 309.714844 134.410156 307.664062 136.5 C 307.402344 136.769531 307.148438 137.058594 306.890625 137.339844 L 306.890625 125.679688 C 307.121094 125.339844 307.339844 124.988281 307.546875 124.617188 C 308.113281 123.601562 308.492188 122.453125 308.765625 121.226562 C 309.394531 118.367188 309.375 115.195312 308.683594 112.371094 C 308.390625 111.179688 307.929688 109.921875 307.09375 109.316406 C 306.671875 109.011719 306.242188 108.933594 305.824219 109.007812 C 305.148438 105.640625 304.097656 102.144531 301.539062 100.851562 C 299.003906 99.585938 296.605469 102.175781 295.933594 105.433594 C 295.585938 107.140625 295.570312 108.90625 295.792969 110.632812 C 294.921875 110.550781 294.082031 110.921875 293.460938 112.0625 C 293.414062 112.148438 293.378906 112.246094 293.339844 112.339844 L 241.59375 84.117188 L 212.851562 59.746094 L 212.53125 59.472656 L 201.371094 62.183594 L 187.632812 54.691406 L 187.238281 54.476562 L 150.445312 74.542969 L 106.359375 85.242188 L 105.964844 85.335938 L 97.871094 103.214844 L 68.015625 119.496094 L 67.585938 119.730469 L 67.585938 170.085938 L 58.574219 189.984375 L 67.585938 209.878906 L 67.585938 250.320312 L 91.90625 263.582031 L 105.800781 294.261719 L 105.964844 294.628906 L 183.210938 313.378906 L 186.84375 315.359375 L 187.238281 315.574219 L 188.785156 314.730469 L 212.125 320.394531 L 212.53125 320.492188 L 274.363281 268.058594 L 306.460938 250.554688 L 306.890625 250.320312 L 306.890625 230.816406 C 307.488281 231.074219 308.09375 231.316406 308.703125 231.539062 C 309.289062 231.757812 310.0625 230.648438 309.835938 229.855469 C 309.085938 227.355469 308.082031 225.082031 306.890625 223.066406 L 306.890625 212.132812 C 309.535156 211.371094 312.179688 210.199219 314.832031 208.902344 C 316.03125 210.574219 317.40625 211.972656 318.917969 213.105469 C 320.496094 214.285156 322.121094 215.238281 324.050781 215.289062 C 325.851562 215.339844 327.933594 214.53125 329.566406 212.53125 C 330.417969 211.46875 331.082031 209.953125 331.0625 208.40625 C 331.058594 207.996094 331.011719 207.617188 330.941406 207.257812 C 333.214844 206.378906 335.515625 204.441406 336.671875 201.0625 C 337.375 199.066406 337.46875 196.964844 336.898438 195.214844 Z M 324.308594 164.027344 C 324.910156 164.007812 325.191406 165.070312 325.351562 165.757812 C 325.902344 168.078125 325.789062 170.84375 325.292969 173.300781 C 324.851562 175.554688 323.921875 177.496094 322.75 179.167969 C 321.722656 180.625 320.542969 181.925781 319.25 182.902344 C 319.542969 181.089844 319.664062 179.269531 319.730469 177.460938 C 319.792969 175.648438 319.757812 173.847656 319.585938 172.089844 C 320.375 169.816406 321.425781 167.691406 322.59375 165.800781 C 323.011719 165.136719 323.644531 164.046875 324.308594 164.027344 Z M 315.570312 160.089844 C 315.742188 158.671875 316.160156 157.339844 316.957031 156.320312 C 317.644531 155.4375 318.535156 154.988281 319.40625 155.320312 C 320.351562 155.675781 321.125 156.660156 321.613281 157.847656 C 322.226562 159.335938 322.519531 161.058594 322.746094 162.773438 C 322.578125 162.945312 322.417969 163.132812 322.265625 163.332031 C 320.960938 165.046875 319.90625 167.160156 318.972656 169.382812 C 318.503906 167.84375 317.78125 166.5 316.839844 165.460938 C 316.46875 165.050781 316.042969 164.667969 315.589844 164.371094 C 315.425781 163.011719 315.378906 161.507812 315.570312 160.089844 Z M 315.265625 179.460938 C 314.199219 177.863281 313.15625 176.167969 312.574219 174.085938 C 312.035156 172.199219 311.746094 169.886719 312.277344 167.804688 C 312.480469 167.007812 312.808594 166.109375 313.425781 165.890625 C 313.792969 165.761719 314.167969 165.855469 314.527344 166.046875 C 314.589844 166.101562 314.65625 166.148438 314.730469 166.171875 C 315.003906 166.347656 315.261719 166.570312 315.480469 166.777344 C 316.792969 168.015625 317.730469 169.992188 318.042969 172.277344 C 318.054688 172.375 318.078125 172.464844 318.109375 172.546875 C 318.269531 174.199219 318.28125 175.878906 318.230469 177.5625 C 318.167969 179.246094 318.054688 180.929688 317.785156 182.613281 C 316.886719 181.671875 316.050781 180.625 315.265625 179.460938 Z M 67.585938 205.878906 L 60.386719 189.984375 L 67.585938 174.085938 Z M 311.242188 135.6875 C 311.816406 135.230469 312.398438 134.800781 312.992188 134.394531 C 310.898438 139.625 308.140625 144.496094 304.144531 146.964844 C 303.265625 147.507812 302.335938 147.910156 301.394531 148.140625 C 304.011719 143.09375 307.375 138.792969 311.242188 135.6875 Z M 305.242188 148.457031 L 305.242188 180.5 C 304.714844 180.886719 304.195312 181.285156 303.675781 181.707031 C 302.535156 182.640625 301.425781 183.660156 300.363281 184.753906 C 299.546875 185.589844 298.742188 186.484375 297.960938 187.402344 L 297.960938 176.644531 C 298.597656 172.039062 299.144531 167.425781 299.59375 162.804688 C 299.792969 160.722656 300 158.644531 300.148438 156.558594 C 300.308594 154.476562 300.488281 152.394531 300.605469 150.308594 C 302.25 150.089844 303.796875 149.4375 305.242188 148.457031 Z M 300.886719 145.726562 L 301.097656 141.320312 C 301.191406 139.597656 301.242188 137.875 301.304688 136.152344 C 301.363281 134.429688 301.429688 132.703125 301.460938 130.980469 C 302.808594 130.140625 304.074219 129.015625 305.242188 127.742188 L 305.242188 139.25 C 304.121094 140.636719 303.054688 142.113281 302.070312 143.691406 C 301.660156 144.355469 301.265625 145.035156 300.886719 145.726562 Z M 306.355469 111.085938 C 306.960938 111.4375 307.214844 112.652344 307.382812 113.433594 C 307.878906 115.847656 307.863281 118.4375 307.308594 120.835938 C 306.835938 122.847656 305.90625 124.328125 304.765625 125.675781 C 303.785156 126.839844 302.671875 127.867188 301.511719 128.699219 L 301.570312 125.875 C 301.59375 123.566406 301.664062 121.25 301.644531 118.941406 L 301.691406 118.804688 C 302.375 116.496094 303.375 114.324219 304.574219 112.460938 C 304.960938 111.859375 305.667969 110.6875 306.355469 111.085938 Z M 298.542969 103.417969 C 300.125 101.5625 302.171875 103.066406 303.15625 105.191406 C 303.8125 106.597656 304.144531 108.210938 304.457031 109.808594 C 304.351562 109.914062 304.25 110.019531 304.15625 110.136719 C 303.289062 111.15625 302.589844 112.515625 301.960938 113.808594 C 301.617188 114.519531 301.304688 115.25 301.023438 116 C 300.445312 114.519531 299.640625 113.226562 298.636719 112.21875 C 298.261719 111.84375 297.835938 111.492188 297.390625 111.214844 C 296.925781 108.5625 296.929688 105.3125 298.542969 103.417969 Z M 294.242188 114.519531 C 294.394531 113.71875 294.707031 112.761719 295.378906 112.613281 C 295.710938 112.542969 296.050781 112.628906 296.378906 112.792969 C 296.4375 112.832031 296.496094 112.867188 296.558594 112.886719 C 296.875 113.070312 297.179688 113.3125 297.445312 113.542969 C 298.695312 114.632812 299.636719 116.3125 300.128906 118.234375 L 300.128906 118.253906 C 300.132812 119.933594 300.101562 121.613281 300.085938 123.292969 C 300.066406 124.972656 300.050781 126.652344 300.003906 128.332031 C 299.226562 127.519531 298.550781 126.589844 297.871094 125.570312 C 296.796875 123.941406 295.640625 122.40625 294.914062 120.441406 C 294.246094 118.65625 293.867188 116.5 294.242188 114.519531 Z M 292.820312 113.933594 C 292.460938 115.703125 292.613281 117.742188 293.007812 119.398438 C 293.296875 120.625 293.707031 121.796875 294.234375 122.863281 C 294.769531 123.945312 295.417969 124.875 296.058594 125.84375 C 297.261719 127.679688 298.429688 129.441406 299.949219 130.769531 C 299.914062 132.808594 299.832031 134.847656 299.761719 136.890625 C 299.507812 143.609375 299.160156 150.328125 298.589844 157.039062 C 298.457031 158.902344 298.261719 160.761719 298.089844 162.625 L 297.960938 163.929688 L 297.960938 131.917969 L 293.78125 128.375 C 293.53125 126.976562 293.128906 125.636719 292.554688 124.441406 C 292.03125 123.335938 291.296875 122.316406 290.285156 122.1875 C 289.96875 122.144531 289.675781 122.214844 289.402344 122.347656 C 288.230469 119.261719 286.601562 116.078125 283.804688 115.761719 C 282.554688 115.625 281.511719 116.261719 280.726562 117.304688 L 247.808594 89.386719 Z M 280.910156 128.679688 C 281.207031 128.761719 281.496094 128.886719 281.753906 129.007812 C 283.316406 129.742188 284.625 131.320312 285.367188 133.289062 C 285.410156 133.40625 285.472656 133.5 285.546875 133.574219 C 286.230469 136.441406 286.765625 139.40625 287.234375 142.378906 C 286.039062 141.769531 284.90625 141.003906 283.820312 140.097656 C 282.480469 138.980469 281.183594 137.789062 280.203125 136.097656 C 279.320312 134.582031 278.746094 132.628906 278.847656 130.675781 C 278.890625 129.925781 279.09375 129.050781 279.667969 128.738281 C 279.96875 128.578125 280.300781 128.5625 280.628906 128.617188 C 280.71875 128.667969 280.816406 128.6875 280.910156 128.679688 Z M 281.332031 119.359375 C 281.820312 118.355469 282.609375 117.714844 283.515625 117.730469 C 284.542969 117.742188 285.5 118.476562 286.214844 119.4375 C 287.070312 120.597656 287.632812 122.0625 288.179688 123.511719 C 288.097656 123.632812 288.023438 123.753906 287.949219 123.882812 C 287.257812 125.09375 286.769531 126.574219 286.328125 127.976562 C 286.085938 128.761719 285.878906 129.566406 285.703125 130.382812 C 284.894531 129.089844 283.867188 128.0625 282.703125 127.386719 C 282.320312 127.167969 281.898438 126.980469 281.464844 126.851562 C 280.652344 124.542969 280.203125 121.632812 281.332031 119.359375 Z M 286.835938 132.441406 C 287.1875 130.269531 287.769531 128.171875 288.59375 126.222656 C 288.886719 125.519531 289.289062 124.398438 289.9375 124.199219 C 290.554688 124.007812 291.046875 124.953125 291.324219 125.558594 C 292.1875 127.464844 292.621094 129.707031 292.617188 131.957031 C 292.601562 134.105469 292.121094 136.035156 291.289062 137.867188 C 290.605469 139.382812 289.703125 140.847656 288.691406 142.042969 L 288.632812 141.671875 C 288.152344 138.5625 287.566406 135.453125 286.835938 132.441406 Z M 292.335938 139.332031 C 293.371094 137.199219 294.011719 134.886719 294.089844 132.335938 C 294.101562 131.816406 294.085938 131.292969 294.058594 130.769531 L 296.3125 132.683594 L 296.3125 166.847656 C 294.234375 164.253906 292.792969 160.992188 291.75 157.429688 C 291.105469 155.320312 290.628906 153.113281 290.191406 150.878906 C 289.734375 148.636719 289.398438 146.378906 289.035156 144.171875 C 290.320312 142.832031 291.429688 141.160156 292.335938 139.332031 Z M 212.105469 61.273438 L 234.445312 80.21875 L 203.527344 63.355469 Z M 187.238281 56.355469 L 198.984375 62.761719 L 156.65625 73.035156 Z M 107.140625 86.753906 L 144.832031 77.601562 L 100.277344 101.902344 Z M 69.238281 120.710938 L 96.742188 105.710938 L 69.238281 166.441406 Z M 69.238281 249.339844 L 69.238281 213.523438 L 90.777344 261.085938 Z M 107.140625 293.214844 L 94.3125 264.894531 L 177.601562 310.316406 Z M 188.558594 312.976562 L 183.8125 311.824219 L 93.183594 262.398438 L 69.238281 209.523438 L 69.238281 170.441406 L 99.148438 104.398438 L 151.042969 76.097656 L 201.140625 63.9375 L 240.65625 85.488281 L 279.90625 118.773438 C 279.484375 119.785156 279.234375 120.949219 279.191406 122.105469 C 279.136719 123.714844 279.394531 125.261719 279.816406 126.730469 C 278.960938 126.886719 278.199219 127.445312 277.753906 128.65625 C 277.351562 129.753906 277.273438 130.984375 277.398438 132.199219 C 277.507812 133.410156 277.820312 134.601562 278.21875 135.621094 C 279.113281 137.875 280.507812 139.542969 282.0625 140.953125 C 283.78125 142.503906 285.621094 143.796875 287.609375 144.679688 C 287.960938 146.910156 288.308594 149.136719 288.742188 151.328125 C 289.152344 153.519531 289.625 155.671875 290.242188 157.761719 C 287.296875 154.824219 283.414062 153.667969 279.695312 153.539062 C 278.058594 153.480469 276.414062 153.601562 274.773438 153.769531 C 274.078125 153.84375 274.027344 155.058594 274.460938 155.503906 C 278.316406 159.457031 282.945312 162.136719 287.882812 163.1875 C 289.277344 163.480469 290.6875 163.632812 292.109375 163.644531 C 292.199219 163.644531 292.289062 163.625 292.375 163.589844 C 292.496094 163.839844 292.617188 164.089844 292.742188 164.34375 C 293.71875 166.335938 294.910156 168.140625 296.3125 169.613281 L 296.3125 177.605469 C 296.128906 178.914062 295.9375 180.226562 295.726562 181.53125 C 294.351562 190.40625 292.578125 199.234375 290.308594 207.949219 C 288 216.800781 285.199219 225.546875 281.75 234.042969 C 278.570312 241.917969 274.863281 249.59375 270.605469 256.960938 C 267.140625 262.9375 263.289062 268.691406 259.132812 274.214844 C 259.226562 273.542969 259.320312 272.875 259.410156 272.210938 C 259.5 271.53125 259.585938 270.851562 259.671875 270.179688 C 259.855469 268.828125 260.058594 267.480469 260.289062 266.144531 C 260.53125 264.816406 260.703125 263.433594 260.949219 262.089844 C 261.175781 260.738281 261.449219 259.410156 261.699219 258.058594 L 261.738281 257.859375 C 261.765625 257.785156 261.789062 257.703125 261.804688 257.613281 L 261.839844 257.308594 C 262.292969 254.746094 262.90625 252.269531 263.421875 249.71875 C 263.695312 248.457031 263.988281 247.203125 264.296875 245.953125 C 264.5625 244.683594 264.84375 243.417969 265.136719 242.160156 C 270.625 241.222656 275.492188 235.988281 278.644531 230.105469 C 279.660156 228.175781 280.609375 226.1875 281.386719 224.132812 C 281.714844 223.300781 281.03125 222.632812 280.425781 223.046875 C 275.496094 226.433594 270.890625 230.949219 267.0625 236.105469 C 266.777344 236.480469 266.503906 236.859375 266.234375 237.238281 C 266.941406 234.164062 267.472656 231.027344 267.964844 227.949219 C 273.097656 223.976562 277.394531 217.933594 279.734375 211.039062 C 281.507812 210.351562 283.28125 209.128906 284.816406 207.632812 C 286.449219 205.996094 287.796875 204.074219 288.640625 201.613281 C 289.527344 198.953125 289.921875 196.015625 289.496094 193.34375 C 289.324219 192.199219 288.894531 191.027344 288.050781 190.597656 C 287.773438 190.457031 287.484375 190.410156 287.195312 190.433594 C 286.957031 187.144531 286.359375 183.609375 283.933594 182.246094 C 281.539062 180.910156 278.8125 183.140625 277.769531 186.203125 C 277.253906 187.785156 276.972656 189.382812 276.960938 191.007812 C 276.125 190.847656 275.257812 191.09375 274.488281 192.042969 C 273.125 193.726562 272.726562 196.507812 272.90625 198.644531 C 273.050781 201.0625 273.808594 203.125 274.84375 205.074219 C 275.863281 207.027344 276.996094 208.820312 278.390625 210.375 C 276.9375 214.761719 274.625 218.820312 271.804688 222.144531 C 270.71875 223.453125 269.476562 224.625 268.238281 225.691406 C 268.363281 224.589844 268.472656 223.492188 268.566406 222.402344 C 268.65625 221.308594 268.679688 220.199219 268.707031 219.109375 C 268.855469 213.640625 268.074219 208.261719 266.316406 203.523438 C 265.539062 201.472656 264.539062 199.542969 263.378906 197.835938 C 264.207031 195.730469 264.472656 193.410156 264.335938 191.242188 C 264.144531 189.046875 263.464844 186.96875 262.324219 185.28125 C 261.25 183.699219 259.75 182.300781 258.066406 181.730469 C 257.207031 181.4375 256.214844 181.472656 255.472656 182.226562 C 255.351562 182.351562 255.25 182.488281 255.15625 182.628906 C 252.878906 181.179688 250.1875 179.980469 247.648438 181.6875 C 246.511719 182.4375 245.730469 183.765625 245.566406 185.195312 C 245.40625 186.71875 245.726562 188.136719 246.410156 189.382812 C 246.941406 190.355469 247.644531 191.15625 248.445312 191.84375 L 248.378906 191.902344 C 247.589844 192.683594 247.242188 193.757812 247.386719 194.863281 C 247.640625 196.839844 249.171875 198.492188 250.640625 199.414062 C 252.1875 200.378906 253.992188 200.796875 255.816406 200.769531 C 258.039062 200.746094 260.210938 200.074219 262.378906 199.34375 C 263.148438 200.519531 263.859375 201.808594 264.429688 203.15625 C 265.203125 204.988281 265.816406 206.953125 266.285156 209.007812 C 266.707031 211.035156 266.980469 213.152344 267.140625 215.320312 C 265.304688 211.320312 261.925781 208.78125 258.316406 207.265625 C 256.820312 206.636719 255.273438 206.160156 253.707031 205.738281 C 253.128906 205.585938 252.429688 206.347656 252.765625 206.976562 C 255.34375 211.746094 258.808594 215.820312 263.109375 218.632812 C 264.335938 219.433594 265.621094 220.128906 266.949219 220.699219 C 267.019531 220.730469 267.089844 220.742188 267.15625 220.746094 C 267.054688 222.972656 266.796875 225.191406 266.527344 227.453125 C 266.515625 227.496094 266.507812 227.539062 266.507812 227.585938 C 266.253906 229.191406 265.976562 230.808594 265.691406 232.433594 C 265.410156 234.0625 265.023438 235.648438 264.691406 237.269531 C 264.453125 238.433594 264.210938 239.597656 263.925781 240.742188 C 263.835938 240.898438 263.796875 241.070312 263.808594 241.234375 C 263.617188 242.066406 263.429688 242.898438 263.238281 243.734375 C 263.054688 244.574219 262.878906 245.414062 262.667969 246.234375 C 262.265625 247.886719 261.890625 249.554688 261.546875 251.238281 C 260.5625 247.65625 258.394531 244.816406 255.871094 242.722656 C 254.621094 241.683594 253.28125 240.769531 251.910156 239.917969 C 251.351562 239.574219 250.589844 240.324219 250.722656 240.984375 C 250.988281 242.34375 251.332031 243.683594 251.746094 245 C 252.171875 246.320312 252.601562 247.566406 253.140625 248.804688 C 254.199219 251.265625 255.539062 253.578125 257.144531 255.625 C 258.011719 256.742188 258.964844 257.757812 259.992188 258.703125 C 259.4375 261.375 259.042969 264.125 258.566406 266.792969 C 258.34375 268.136719 258.144531 269.492188 257.96875 270.851562 C 257.773438 272.199219 257.5625 273.527344 257.394531 274.878906 C 257.371094 275.074219 257.34375 275.273438 257.320312 275.472656 Z M 291.023438 161.597656 C 286.652344 161.316406 282.402344 159.664062 278.691406 156.867188 C 278.117188 156.433594 277.554688 155.976562 277.007812 155.496094 C 281.300781 155.28125 285.761719 155.875 289.203125 159.277344 C 289.882812 159.949219 290.488281 160.730469 291.023438 161.597656 Z M 289.5 251.140625 C 286.75 251.539062 283.933594 252.34375 281.175781 253.5 C 279.8125 254.085938 278.386719 254.722656 277.007812 255.449219 C 275.621094 256.171875 274.253906 256.972656 272.921875 257.851562 C 272.320312 258.222656 271.726562 258.613281 271.136719 259.011719 C 274.652344 253.023438 277.847656 246.847656 280.65625 240.511719 C 283.1875 234.695312 285.5 228.789062 287.503906 222.785156 C 288.417969 220.964844 289.585938 219.582031 290.941406 218.492188 C 291.617188 217.949219 292.328125 217.472656 293.058594 217.050781 C 293.773438 216.625 294.503906 216.25 295.230469 215.910156 C 295.4375 217.488281 295.8125 218.933594 296.3125 220.265625 L 296.3125 247.28125 L 289.921875 252.703125 C 290.445312 251.941406 290.253906 251.027344 289.5 251.140625 Z M 292.90625 215.0625 C 292.226562 215.457031 291.558594 215.890625 290.917969 216.375 C 290.257812 216.855469 289.625 217.386719 289.03125 217.980469 C 289.351562 216.960938 289.683594 215.941406 289.960938 214.910156 C 291.945312 208.234375 293.53125 201.460938 294.925781 194.664062 C 295.390625 194.664062 295.851562 194.617188 296.3125 194.546875 L 296.3125 213.363281 C 295.1875 213.859375 294.03125 214.40625 292.90625 215.0625 Z M 296.3125 187.246094 L 296.3125 189.472656 C 296.144531 189.695312 295.972656 189.90625 295.8125 190.132812 L 296.179688 188.039062 C 296.226562 187.773438 296.265625 187.511719 296.3125 187.246094 Z M 256.226562 251.046875 C 255.0625 249.0625 254.136719 246.929688 253.355469 244.648438 C 253.128906 243.976562 252.925781 243.289062 252.746094 242.597656 C 254.492188 243.835938 256.15625 245.257812 257.5 246.996094 C 258.171875 247.867188 258.761719 248.8125 259.238281 249.859375 C 259.699219 250.894531 260.035156 252.015625 260.230469 253.253906 C 260.386719 254.265625 260.429688 255.324219 260.359375 256.414062 C 258.765625 254.851562 257.386719 253.03125 256.226562 251.046875 Z M 266.0625 240.164062 C 266.820312 238.964844 267.632812 237.808594 268.5 236.691406 C 268.925781 236.132812 269.382812 235.589844 269.824219 235.046875 C 270.261719 234.5 270.707031 233.960938 271.167969 233.4375 C 272.082031 232.386719 273.046875 231.378906 274.046875 230.421875 C 275.011719 229.449219 276.011719 228.523438 277.050781 227.65625 C 277.664062 227.140625 278.296875 226.648438 278.9375 226.175781 C 277.707031 228.777344 276.386719 231.371094 274.671875 233.574219 C 273.832031 234.683594 272.957031 235.726562 271.980469 236.632812 C 270.992188 237.535156 269.945312 238.324219 268.832031 238.96875 C 267.917969 239.496094 266.996094 239.894531 266.0625 240.164062 Z M 285.191406 191.53125 C 283.75 192.941406 282.519531 194.746094 281.398438 196.625 C 281.0625 195.1875 280.472656 193.894531 279.621094 192.847656 C 279.289062 192.433594 278.898438 192.039062 278.472656 191.722656 C 278.421875 190.480469 278.5 189.121094 278.816406 187.867188 C 279.101562 186.601562 279.625 185.4375 280.496094 184.59375 C 281.253906 183.867188 282.171875 183.550781 283.015625 183.9375 C 283.925781 184.355469 284.613281 185.332031 285 186.46875 C 285.492188 187.890625 285.636719 189.496094 285.714844 191.074219 C 285.53125 191.214844 285.359375 191.367188 285.191406 191.53125 Z M 287.15625 192.386719 C 287.757812 192.441406 287.945312 193.4375 288.042969 194.085938 C 288.398438 196.269531 288.015625 198.753906 287.3125 200.929688 C 286.667969 202.925781 285.558594 204.542969 284.25 205.898438 C 283.671875 206.484375 283.0625 207.035156 282.425781 207.523438 C 281.777344 208.007812 281.105469 208.429688 280.425781 208.773438 C 280.636719 207.996094 280.863281 207.222656 281.007812 206.425781 C 281.246094 205.210938 281.433594 203.992188 281.566406 202.777344 C 281.632812 202.167969 281.6875 201.558594 281.726562 200.953125 C 281.753906 200.34375 281.765625 199.734375 281.765625 199.128906 C 282.742188 197.175781 283.988281 195.402344 285.304688 193.808594 C 285.777344 193.253906 286.496094 192.332031 287.15625 192.386719 Z M 280.21875 199.113281 C 280.222656 199.203125 280.238281 199.285156 280.257812 199.363281 C 280.28125 200.871094 280.121094 202.359375 279.925781 203.863281 C 279.71875 205.363281 279.441406 206.863281 279.015625 208.320312 C 278.207031 207.355469 277.5 206.320312 276.820312 205.171875 C 275.90625 203.605469 275.027344 201.960938 274.636719 200.042969 C 274.285156 198.304688 274.179688 196.203125 274.890625 194.417969 C 275.160156 193.730469 275.570312 192.96875 276.199219 192.839844 C 276.570312 192.765625 276.9375 192.894531 277.277344 193.109375 C 277.335938 193.167969 277.398438 193.214844 277.46875 193.242188 C 277.726562 193.433594 277.960938 193.664062 278.164062 193.875 C 279.347656 195.136719 280.109375 197.019531 280.21875 199.113281 Z M 255.003906 190.8125 C 253.742188 190.378906 252.367188 190.300781 251.035156 190.605469 C 250.667969 190.6875 250.296875 190.792969 249.9375 190.933594 C 249.164062 190.367188 248.421875 189.648438 247.878906 188.792969 C 247.34375 187.945312 247 186.960938 247 185.832031 C 247.007812 184.796875 247.421875 183.8125 248.21875 183.214844 C 249 182.628906 250.003906 182.457031 250.894531 182.585938 C 252.234375 182.78125 253.414062 183.523438 254.554688 184.273438 C 254.507812 184.550781 254.476562 184.832031 254.460938 185.109375 C 254.347656 187.007812 254.617188 188.988281 255.003906 190.8125 Z M 249.03125 193.492188 C 249.265625 193.113281 249.621094 192.855469 250.007812 192.671875 L 250.0625 192.644531 C 250.296875 192.535156 250.539062 192.453125 250.765625 192.382812 C 252.476562 191.851562 254.289062 192.136719 255.765625 193.105469 C 255.824219 193.210938 255.914062 193.304688 256.039062 193.371094 C 257.058594 193.917969 258.015625 194.578125 258.90625 195.339844 C 259.789062 196.101562 260.59375 196.953125 261.335938 197.894531 C 258.375 198.878906 255.308594 199.59375 252.472656 198.460938 C 251.171875 197.945312 249.953125 196.984375 249.25 195.652344 C 248.933594 195.054688 248.613281 194.175781 249.03125 193.492188 Z M 258.183594 192.628906 C 257.753906 192.347656 257.3125 192.089844 256.867188 191.851562 C 256.609375 190.972656 256.40625 190.078125 256.265625 189.167969 C 256.101562 188.246094 255.996094 187.308594 255.957031 186.363281 C 255.925781 185.585938 255.84375 184.640625 256.167969 183.898438 C 256.460938 183.21875 257.074219 183.246094 257.601562 183.429688 C 258.917969 183.878906 260.113281 185.011719 260.960938 186.207031 C 261.910156 187.542969 262.570312 189.207031 262.808594 190.996094 C 263.023438 192.757812 262.859375 194.667969 262.328125 196.425781 C 261.109375 194.933594 259.722656 193.644531 258.183594 192.628906 Z M 266.488281 218.449219 C 264.507812 217.496094 262.65625 216.25 260.972656 214.78125 C 260.128906 214.046875 259.332031 213.257812 258.570312 212.417969 C 257.796875 211.570312 257.066406 210.675781 256.386719 209.738281 C 255.972656 209.164062 255.574219 208.578125 255.199219 207.980469 C 259.246094 209.3125 263.242188 211.375 265.457031 215.640625 C 265.898438 216.503906 266.246094 217.445312 266.488281 218.449219 Z M 247.289062 288.195312 L 245.992188 289.496094 C 245.125 290.367188 244.261719 291.238281 243.414062 292.121094 L 243.28125 292.253906 L 212.105469 318.691406 L 190.941406 313.554688 L 256.1875 277.972656 C 253.742188 281.015625 251.195312 283.980469 248.53125 286.839844 Z M 253.429688 283.648438 C 254.640625 282.230469 255.832031 280.796875 257.035156 279.375 C 257.890625 278.304688 258.726562 277.222656 259.558594 276.132812 L 267.214844 271.957031 Z M 273.425781 266.691406 L 261.921875 272.964844 C 264.25 269.789062 266.484375 266.550781 268.589844 263.226562 C 271.066406 264.121094 273.84375 263.832031 276.730469 262.757812 C 277.726562 262.398438 278.714844 261.925781 279.6875 261.382812 Z M 273.144531 261.742188 C 272.136719 261.839844 271.171875 261.78125 270.257812 261.582031 C 271.417969 260.730469 272.609375 259.9375 273.824219 259.203125 C 275.042969 258.472656 276.207031 257.761719 277.429688 257.136719 C 278.640625 256.511719 279.871094 255.945312 281.109375 255.453125 C 282.351562 254.964844 283.542969 254.515625 284.769531 254.160156 C 285.496094 253.949219 286.226562 253.761719 286.949219 253.605469 C 285.890625 254.660156 284.828125 255.6875 283.710938 256.613281 C 282.574219 257.53125 281.421875 258.371094 280.265625 259.097656 C 277.972656 260.566406 275.535156 261.507812 273.144531 261.742188 Z M 305.242188 249.339844 L 280.574219 262.792969 L 297.671875 248.292969 L 297.960938 248.046875 L 297.960938 223.566406 C 299.636719 226.179688 301.875 228.148438 304.269531 229.53125 C 304.589844 229.714844 304.914062 229.886719 305.242188 230.050781 Z M 307.519531 228.621094 C 303.570312 226.949219 299.800781 224.316406 297.859375 219.414062 C 297.480469 218.425781 297.144531 217.367188 296.917969 216.25 C 298.894531 217.246094 300.75 218.617188 302.367188 220.320312 C 303.976562 222.023438 305.386719 224.066406 306.546875 226.417969 C 306.898438 227.125 307.222656 227.859375 307.519531 228.621094 Z M 304.933594 210.523438 C 305.035156 210.4375 305.140625 210.34375 305.242188 210.257812 L 305.242188 210.449219 C 305.140625 210.472656 305.035156 210.5 304.933594 210.523438 Z M 305.242188 212.550781 L 305.242188 220.597656 C 303.792969 218.699219 302.117188 217.097656 300.308594 215.832031 C 299.640625 215.367188 298.953125 214.953125 298.25 214.578125 C 299.304688 214.113281 300.359375 213.617188 301.402344 213.019531 C 302.683594 213 303.964844 212.828125 305.242188 212.550781 Z M 302.21875 210.359375 C 301.902344 210.574219 301.585938 210.773438 301.265625 210.964844 C 301.21875 210.984375 301.171875 211.011719 301.128906 211.046875 C 300.097656 211.660156 299.035156 212.167969 297.960938 212.640625 L 297.960938 194.171875 C 299.523438 193.671875 301.039062 192.8125 302.46875 191.671875 C 303.429688 190.894531 304.355469 189.988281 305.242188 188.992188 L 305.242188 207.96875 C 304.257812 208.855469 303.25 209.664062 302.21875 210.359375 Z M 304.65625 187.152344 C 302.925781 189.171875 301.027344 190.804688 298.890625 191.785156 C 297.945312 192.214844 296.96875 192.5 296.003906 192.601562 C 297.660156 190.257812 299.386719 188.101562 301.316406 186.203125 C 303.21875 184.300781 305.207031 182.644531 307.328125 181.292969 C 307.949219 180.894531 308.582031 180.527344 309.21875 180.183594 C 307.84375 182.714844 306.382812 185.128906 304.65625 187.152344 Z M 317.683594 201.261719 C 318.460938 199.140625 319.417969 197.203125 320.761719 195.6875 C 322.152344 194.074219 323.785156 192.921875 325.453125 192.433594 C 326.144531 192.230469 327.039062 191.960938 327.640625 192.425781 C 328.210938 192.863281 327.964844 194 327.707031 194.808594 C 327.488281 195.503906 327.234375 196.183594 326.957031 196.847656 C 326.667969 197.515625 326.347656 198.164062 326.011719 198.792969 C 325.339844 200.050781 324.59375 201.230469 323.820312 202.304688 C 321.324219 203.425781 318.769531 204.695312 316.269531 205.976562 C 316.613281 204.363281 317.140625 202.773438 317.683594 201.261719 Z M 328.59375 211.0625 C 327.324219 212.523438 325.648438 213.0625 324.25 213.007812 C 322.636719 212.945312 321.273438 212.097656 319.945312 211.128906 C 318.753906 210.257812 317.652344 209.222656 316.628906 207.996094 L 319.308594 206.632812 C 320.738281 205.910156 322.175781 205.253906 323.621094 204.621094 C 323.707031 204.660156 323.796875 204.675781 323.894531 204.65625 C 325.5 204.335938 327.0625 204.808594 328.234375 206.085938 C 328.519531 206.398438 328.820312 206.769531 329.0625 207.210938 C 329.097656 207.316406 329.140625 207.40625 329.203125 207.480469 C 329.335938 207.773438 329.441406 208.089844 329.496094 208.441406 C 329.652344 209.453125 329.1875 210.382812 328.59375 211.0625 Z M 335.507812 199.820312 C 335.0625 201.378906 334.222656 202.578125 333.292969 203.472656 C 332.296875 204.429688 331.238281 204.957031 330.148438 205.257812 C 330.074219 205.144531 330.003906 205.03125 329.925781 204.921875 C 328.824219 203.386719 327.355469 202.511719 325.773438 202.328125 C 326.984375 200.417969 328.113281 198.253906 328.898438 195.980469 C 329.050781 195.546875 329.183594 195.097656 329.285156 194.636719 C 331.359375 194.078125 333.90625 193.433594 335.257812 195.890625 C 335.820312 196.933594 335.933594 198.375 335.507812 199.820312 Z M 335.507812 199.820312 " clip-rule="nonzero"/></clipPath><linearGradient x1="-0.00000114941" gradientTransform="matrix(0.55739, 0, 0, 0.55739, 58.57611, 54.475249)" y1="238.629" x2="500.355977" gradientUnits="userSpaceOnUse" y2="238.629" id="790143df39"><stop stop-opacity="1" stop-color="rgb(74.499512%, 60.398865%, 30.999756%)" offset="0"/><stop stop-opacity="1" stop-color="rgb(74.273682%, 60.105896%, 30.780029%)" offset="0.00390625"/><stop stop-opacity="1" stop-color="rgb(74.047852%, 59.814453%, 30.561829%)" offset="0.0078125"/><stop stop-opacity="1" stop-color="rgb(73.822021%, 59.521484%, 30.342102%)" offset="0.0117188"/><stop stop-opacity="1" stop-color="rgb(73.596191%, 59.228516%, 30.122375%)" offset="0.015625"/><stop stop-opacity="1" stop-color="rgb(73.370361%, 58.935547%, 29.902649%)" offset="0.0195313"/><stop stop-opacity="1" stop-color="rgb(73.144531%, 58.642578%, 29.684448%)" offset="0.0234375"/><stop stop-opacity="1" stop-color="rgb(72.918701%, 58.349609%, 29.464722%)" offset="0.0273438"/><stop stop-opacity="1" stop-color="rgb(72.694397%, 58.058167%, 29.246521%)" offset="0.03125"/><stop stop-opacity="1" stop-color="rgb(72.468567%, 57.765198%, 29.026794%)" offset="0.0351563"/><stop stop-opacity="1" stop-color="rgb(72.242737%, 57.472229%, 28.808594%)" offset="0.0390625"/><stop stop-opacity="1" stop-color="rgb(72.016907%, 57.17926%, 28.588867%)" offset="0.0429688"/><stop stop-opacity="1" stop-color="rgb(71.791077%, 56.886292%, 28.370667%)" offset="0.046875"/><stop stop-opacity="1" stop-color="rgb(71.565247%, 56.593323%, 28.15094%)" offset="0.0507813"/><stop stop-opacity="1" stop-color="rgb(71.339417%, 56.30188%, 27.932739%)" offset="0.0546875"/><stop stop-opacity="1" stop-color="rgb(71.113586%, 56.008911%, 27.713013%)" offset="0.0585938"/><stop stop-opacity="1" stop-color="rgb(70.889282%, 55.715942%, 27.494812%)" offset="0.0625"/><stop stop-opacity="1" stop-color="rgb(70.663452%, 55.422974%, 27.275085%)" offset="0.0664062"/><stop stop-opacity="1" stop-color="rgb(70.437622%, 55.130005%, 27.056885%)" offset="0.0703125"/><stop stop-opacity="1" stop-color="rgb(70.211792%, 54.837036%, 26.837158%)" offset="0.0742188"/><stop stop-opacity="1" stop-color="rgb(69.985962%, 54.545593%, 26.617432%)" offset="0.078125"/><stop stop-opacity="1" stop-color="rgb(69.760132%, 54.252625%, 26.397705%)" offset="0.0820312"/><stop stop-opacity="1" stop-color="rgb(69.534302%, 53.959656%, 26.179504%)" offset="0.0859375"/><stop stop-opacity="1" stop-color="rgb(69.308472%, 53.666687%, 25.959778%)" offset="0.0898438"/><stop stop-opacity="1" stop-color="rgb(69.082642%, 53.373718%, 25.741577%)" offset="0.09375"/><stop stop-opacity="1" stop-color="rgb(68.856812%, 53.08075%, 25.521851%)" offset="0.0976563"/><stop stop-opacity="1" stop-color="rgb(68.632507%, 52.789307%, 25.30365%)" offset="0.101563"/><stop stop-opacity="1" stop-color="rgb(68.406677%, 52.496338%, 25.083923%)" offset="0.105469"/><stop stop-opacity="1" stop-color="rgb(68.180847%, 52.203369%, 24.865723%)" offset="0.109375"/><stop stop-opacity="1" stop-color="rgb(67.955017%, 51.9104%, 24.645996%)" offset="0.113281"/><stop stop-opacity="1" stop-color="rgb(67.729187%, 51.617432%, 24.427795%)" offset="0.117188"/><stop stop-opacity="1" stop-color="rgb(67.503357%, 51.324463%, 24.208069%)" offset="0.121094"/><stop stop-opacity="1" stop-color="rgb(67.277527%, 51.03302%, 23.989868%)" offset="0.125"/><stop stop-opacity="1" stop-color="rgb(67.051697%, 50.740051%, 23.770142%)" offset="0.128906"/><stop stop-opacity="1" stop-color="rgb(66.825867%, 50.447083%, 23.551941%)" offset="0.132812"/><stop stop-opacity="1" stop-color="rgb(66.600037%, 50.154114%, 23.332214%)" offset="0.136719"/><stop stop-opacity="1" stop-color="rgb(66.375732%, 49.861145%, 23.112488%)" offset="0.140625"/><stop stop-opacity="1" stop-color="rgb(66.149902%, 49.568176%, 22.892761%)" offset="0.144531"/><stop stop-opacity="1" stop-color="rgb(65.924072%, 49.276733%, 22.674561%)" offset="0.148437"/><stop stop-opacity="1" stop-color="rgb(65.698242%, 48.983765%, 22.454834%)" offset="0.152344"/><stop stop-opacity="1" stop-color="rgb(65.472412%, 48.690796%, 22.236633%)" offset="0.15625"/><stop stop-opacity="1" stop-color="rgb(65.246582%, 48.397827%, 22.016907%)" offset="0.160156"/><stop stop-opacity="1" stop-color="rgb(65.020752%, 48.104858%, 21.798706%)" offset="0.164062"/><stop stop-opacity="1" stop-color="rgb(64.794922%, 47.81189%, 21.578979%)" offset="0.167969"/><stop stop-opacity="1" stop-color="rgb(64.570618%, 47.520447%, 21.360779%)" offset="0.171875"/><stop stop-opacity="1" stop-color="rgb(64.344788%, 47.227478%, 21.141052%)" offset="0.175781"/><stop stop-opacity="1" stop-color="rgb(64.118958%, 46.934509%, 20.922852%)" offset="0.179687"/><stop stop-opacity="1" stop-color="rgb(63.893127%, 46.641541%, 20.703125%)" offset="0.183594"/><stop stop-opacity="1" stop-color="rgb(63.667297%, 46.350098%, 20.484924%)" offset="0.1875"/><stop stop-opacity="1" stop-color="rgb(63.441467%, 46.057129%, 20.265198%)" offset="0.191406"/><stop stop-opacity="1" stop-color="rgb(63.215637%, 45.76416%, 20.046997%)" offset="0.195312"/><stop stop-opacity="1" stop-color="rgb(62.989807%, 45.471191%, 19.827271%)" offset="0.199219"/><stop stop-opacity="1" stop-color="rgb(62.763977%, 45.178223%, 19.607544%)" offset="0.203125"/><stop stop-opacity="1" stop-color="rgb(62.538147%, 44.885254%, 19.387817%)" offset="0.207031"/><stop stop-opacity="1" stop-color="rgb(62.313843%, 44.593811%, 19.169617%)" offset="0.210938"/><stop stop-opacity="1" stop-color="rgb(62.088013%, 44.300842%, 18.94989%)" offset="0.214844"/><stop stop-opacity="1" stop-color="rgb(61.862183%, 44.007874%, 18.731689%)" offset="0.21875"/><stop stop-opacity="1" stop-color="rgb(61.636353%, 43.714905%, 18.511963%)" offset="0.222656"/><stop stop-opacity="1" stop-color="rgb(61.410522%, 43.421936%, 18.293762%)" offset="0.226562"/><stop stop-opacity="1" stop-color="rgb(61.184692%, 43.128967%, 18.074036%)" offset="0.230469"/><stop stop-opacity="1" stop-color="rgb(60.958862%, 42.837524%, 17.855835%)" offset="0.234375"/><stop stop-opacity="1" stop-color="rgb(60.733032%, 42.544556%, 17.636108%)" offset="0.238281"/><stop stop-opacity="1" stop-color="rgb(60.507202%, 42.251587%, 17.417908%)" offset="0.242188"/><stop stop-opacity="1" stop-color="rgb(60.281372%, 41.958618%, 17.198181%)" offset="0.246094"/><stop stop-opacity="1" stop-color="rgb(60.057068%, 41.665649%, 16.97998%)" offset="0.25"/><stop stop-opacity="1" stop-color="rgb(59.831238%, 41.372681%, 16.760254%)" offset="0.253906"/><stop stop-opacity="1" stop-color="rgb(59.605408%, 41.081238%, 16.542053%)" offset="0.257812"/><stop stop-opacity="1" stop-color="rgb(59.379578%, 40.788269%, 16.322327%)" offset="0.261719"/><stop stop-opacity="1" stop-color="rgb(59.153748%, 40.4953%, 16.104126%)" offset="0.265625"/><stop stop-opacity="1" stop-color="rgb(58.927917%, 40.202332%, 15.884399%)" offset="0.269531"/><stop stop-opacity="1" stop-color="rgb(58.702087%, 39.909363%, 15.664673%)" offset="0.273438"/><stop stop-opacity="1" stop-color="rgb(58.476257%, 39.616394%, 15.444946%)" offset="0.277344"/><stop stop-opacity="1" stop-color="rgb(58.251953%, 39.324951%, 15.226746%)" offset="0.28125"/><stop stop-opacity="1" stop-color="rgb(58.026123%, 39.031982%, 15.007019%)" offset="0.285156"/><stop stop-opacity="1" stop-color="rgb(57.800293%, 38.739014%, 14.788818%)" offset="0.289062"/><stop stop-opacity="1" stop-color="rgb(57.574463%, 38.446045%, 14.569092%)" offset="0.292969"/><stop stop-opacity="1" stop-color="rgb(57.348633%, 38.153076%, 14.350891%)" offset="0.296875"/><stop stop-opacity="1" stop-color="rgb(57.122803%, 37.860107%, 14.131165%)" offset="0.300781"/><stop stop-opacity="1" stop-color="rgb(56.896973%, 37.568665%, 13.912964%)" offset="0.304688"/><stop stop-opacity="1" stop-color="rgb(56.671143%, 37.275696%, 13.693237%)" offset="0.308594"/><stop stop-opacity="1" stop-color="rgb(56.445312%, 36.982727%, 13.475037%)" offset="0.3125"/><stop stop-opacity="1" stop-color="rgb(56.219482%, 36.689758%, 13.25531%)" offset="0.316406"/><stop stop-opacity="1" stop-color="rgb(55.995178%, 36.39679%, 13.037109%)" offset="0.320312"/><stop stop-opacity="1" stop-color="rgb(55.769348%, 36.103821%, 12.817383%)" offset="0.324219"/><stop stop-opacity="1" stop-color="rgb(55.543518%, 35.812378%, 12.599182%)" offset="0.328125"/><stop stop-opacity="1" stop-color="rgb(55.317688%, 35.519409%, 12.379456%)" offset="0.332031"/><stop stop-opacity="1" stop-color="rgb(55.091858%, 35.22644%, 12.159729%)" offset="0.335938"/><stop stop-opacity="1" stop-color="rgb(54.866028%, 34.933472%, 11.940002%)" offset="0.339844"/><stop stop-opacity="1" stop-color="rgb(54.640198%, 34.640503%, 11.721802%)" offset="0.34375"/><stop stop-opacity="1" stop-color="rgb(54.414368%, 34.347534%, 11.502075%)" offset="0.347656"/><stop stop-opacity="1" stop-color="rgb(54.188538%, 34.056091%, 11.283875%)" offset="0.351562"/><stop stop-opacity="1" stop-color="rgb(53.962708%, 33.763123%, 11.064148%)" offset="0.355469"/><stop stop-opacity="1" stop-color="rgb(53.738403%, 33.470154%, 10.845947%)" offset="0.359375"/><stop stop-opacity="1" stop-color="rgb(53.512573%, 33.177185%, 10.626221%)" offset="0.363281"/><stop stop-opacity="1" stop-color="rgb(53.286743%, 32.884216%, 10.40802%)" offset="0.367188"/><stop stop-opacity="1" stop-color="rgb(53.060913%, 32.591248%, 10.188293%)" offset="0.371094"/><stop stop-opacity="1" stop-color="rgb(52.835083%, 32.299805%, 9.970093%)" offset="0.375"/><stop stop-opacity="1" stop-color="rgb(52.609253%, 32.006836%, 9.750366%)" offset="0.378906"/><stop stop-opacity="1" stop-color="rgb(52.383423%, 31.713867%, 9.532166%)" offset="0.382813"/><stop stop-opacity="1" stop-color="rgb(52.157593%, 31.420898%, 9.312439%)" offset="0.386719"/><stop stop-opacity="1" stop-color="rgb(51.933289%, 31.129456%, 9.094238%)" offset="0.390625"/><stop stop-opacity="1" stop-color="rgb(51.707458%, 30.836487%, 8.874512%)" offset="0.394531"/><stop stop-opacity="1" stop-color="rgb(51.481628%, 30.543518%, 8.654785%)" offset="0.398438"/><stop stop-opacity="1" stop-color="rgb(51.255798%, 30.250549%, 8.435059%)" offset="0.402344"/><stop stop-opacity="1" stop-color="rgb(51.029968%, 29.957581%, 8.216858%)" offset="0.40625"/><stop stop-opacity="1" stop-color="rgb(50.805664%, 29.673767%, 8.003235%)" offset="0.410156"/><stop stop-opacity="1" stop-color="rgb(50.58136%, 29.391479%, 7.789612%)" offset="0.414063"/><stop stop-opacity="1" stop-color="rgb(50.38147%, 29.31366%, 7.678223%)" offset="0.417969"/><stop stop-opacity="1" stop-color="rgb(50.18158%, 29.23584%, 7.568359%)" offset="0.421875"/><stop stop-opacity="1" stop-color="rgb(49.981689%, 29.15802%, 7.45697%)" offset="0.425781"/><stop stop-opacity="1" stop-color="rgb(49.781799%, 29.0802%, 7.347107%)" offset="0.429688"/><stop stop-opacity="1" stop-color="rgb(49.581909%, 29.00238%, 7.235718%)" offset="0.433594"/><stop stop-opacity="1" stop-color="rgb(49.382019%, 28.924561%, 7.125854%)" offset="0.4375"/><stop stop-opacity="1" stop-color="rgb(49.182129%, 28.846741%, 7.014465%)" offset="0.441406"/><stop stop-opacity="1" stop-color="rgb(48.983765%, 28.768921%, 6.904602%)" offset="0.445313"/><stop stop-opacity="1" stop-color="rgb(48.783875%, 28.691101%, 6.794739%)" offset="0.449219"/><stop stop-opacity="1" stop-color="rgb(48.583984%, 28.613281%, 6.684875%)" offset="0.453125"/><stop stop-opacity="1" stop-color="rgb(48.384094%, 28.535461%, 6.573486%)" offset="0.457031"/><stop stop-opacity="1" stop-color="rgb(48.184204%, 28.457642%, 6.463623%)" offset="0.460938"/><stop stop-opacity="1" stop-color="rgb(47.984314%, 28.379822%, 6.352234%)" offset="0.464844"/><stop stop-opacity="1" stop-color="rgb(47.784424%, 28.302002%, 6.242371%)" offset="0.46875"/><stop stop-opacity="1" stop-color="rgb(47.584534%, 28.224182%, 6.130981%)" offset="0.472656"/><stop stop-opacity="1" stop-color="rgb(47.386169%, 28.146362%, 6.021118%)" offset="0.476563"/><stop stop-opacity="1" stop-color="rgb(47.186279%, 28.068542%, 5.911255%)" offset="0.480469"/><stop stop-opacity="1" stop-color="rgb(46.986389%, 27.990723%, 5.801392%)" offset="0.484375"/><stop stop-opacity="1" stop-color="rgb(46.786499%, 27.911377%, 5.690002%)" offset="0.488281"/><stop stop-opacity="1" stop-color="rgb(46.586609%, 27.833557%, 5.580139%)" offset="0.492188"/><stop stop-opacity="1" stop-color="rgb(46.386719%, 27.755737%, 5.46875%)" offset="0.496094"/><stop stop-opacity="1" stop-color="rgb(46.186829%, 27.677917%, 5.358887%)" offset="0.5"/><stop stop-opacity="1" stop-color="rgb(45.986938%, 27.600098%, 5.247498%)" offset="0.503906"/><stop stop-opacity="1" stop-color="rgb(45.788574%, 27.522278%, 5.137634%)" offset="0.507813"/><stop stop-opacity="1" stop-color="rgb(45.588684%, 27.444458%, 5.026245%)" offset="0.511719"/><stop stop-opacity="1" stop-color="rgb(45.388794%, 27.366638%, 4.916382%)" offset="0.515625"/><stop stop-opacity="1" stop-color="rgb(45.188904%, 27.288818%, 4.806519%)" offset="0.519531"/><stop stop-opacity="1" stop-color="rgb(44.989014%, 27.210999%, 4.696655%)" offset="0.523438"/><stop stop-opacity="1" stop-color="rgb(44.789124%, 27.133179%, 4.585266%)" offset="0.527344"/><stop stop-opacity="1" stop-color="rgb(44.589233%, 27.055359%, 4.475403%)" offset="0.53125"/><stop stop-opacity="1" stop-color="rgb(44.389343%, 26.977539%, 4.364014%)" offset="0.535156"/><stop stop-opacity="1" stop-color="rgb(44.190979%, 26.899719%, 4.25415%)" offset="0.539062"/><stop stop-opacity="1" stop-color="rgb(43.991089%, 26.821899%, 4.142761%)" offset="0.542969"/><stop stop-opacity="1" stop-color="rgb(43.791199%, 26.74408%, 4.032898%)" offset="0.546875"/><stop stop-opacity="1" stop-color="rgb(43.591309%, 26.66626%, 3.921509%)" offset="0.550781"/><stop stop-opacity="1" stop-color="rgb(43.391418%, 26.58844%, 3.811646%)" offset="0.554688"/><stop stop-opacity="1" stop-color="rgb(43.191528%, 26.509094%, 3.701782%)" offset="0.558594"/><stop stop-opacity="1" stop-color="rgb(42.991638%, 26.431274%, 3.591919%)" offset="0.5625"/><stop stop-opacity="1" stop-color="rgb(42.791748%, 26.353455%, 3.48053%)" offset="0.566406"/><stop stop-opacity="1" stop-color="rgb(42.593384%, 26.275635%, 3.370667%)" offset="0.570312"/><stop stop-opacity="1" stop-color="rgb(42.393494%, 26.197815%, 3.259277%)" offset="0.574219"/><stop stop-opacity="1" stop-color="rgb(42.193604%, 26.119995%, 3.149414%)" offset="0.578125"/><stop stop-opacity="1" stop-color="rgb(41.993713%, 26.042175%, 3.038025%)" offset="0.582031"/><stop stop-opacity="1" stop-color="rgb(41.793823%, 25.964355%, 2.928162%)" offset="0.585938"/><stop stop-opacity="1" stop-color="rgb(41.593933%, 25.886536%, 2.816772%)" offset="0.589844"/><stop stop-opacity="1" stop-color="rgb(41.394043%, 25.808716%, 2.706909%)" offset="0.59375"/><stop stop-opacity="1" stop-color="rgb(41.194153%, 25.730896%, 2.597046%)" offset="0.597656"/><stop stop-opacity="1" stop-color="rgb(40.995789%, 25.653076%, 2.487183%)" offset="0.601562"/><stop stop-opacity="1" stop-color="rgb(40.795898%, 25.575256%, 2.375793%)" offset="0.605469"/><stop stop-opacity="1" stop-color="rgb(40.596008%, 25.497437%, 2.26593%)" offset="0.609375"/><stop stop-opacity="1" stop-color="rgb(40.396118%, 25.419617%, 2.154541%)" offset="0.613281"/><stop stop-opacity="1" stop-color="rgb(40.196228%, 25.341797%, 2.044678%)" offset="0.617188"/><stop stop-opacity="1" stop-color="rgb(39.996338%, 25.263977%, 1.933289%)" offset="0.621094"/><stop stop-opacity="1" stop-color="rgb(39.796448%, 25.186157%, 1.823425%)" offset="0.625"/><stop stop-opacity="1" stop-color="rgb(39.596558%, 25.108337%, 1.712036%)" offset="0.628906"/><stop stop-opacity="1" stop-color="rgb(39.398193%, 25.030518%, 1.602173%)" offset="0.632812"/><stop stop-opacity="1" stop-color="rgb(39.198303%, 24.951172%, 1.49231%)" offset="0.636719"/><stop stop-opacity="1" stop-color="rgb(38.998413%, 24.873352%, 1.382446%)" offset="0.640625"/><stop stop-opacity="1" stop-color="rgb(38.798523%, 24.795532%, 1.271057%)" offset="0.644531"/><stop stop-opacity="1" stop-color="rgb(38.598633%, 24.717712%, 1.161194%)" offset="0.648438"/><stop stop-opacity="1" stop-color="rgb(38.398743%, 24.639893%, 1.049805%)" offset="0.652344"/><stop stop-opacity="1" stop-color="rgb(38.198853%, 24.562073%, 0.939941%)" offset="0.65625"/><stop stop-opacity="1" stop-color="rgb(37.998962%, 24.484253%, 0.828552%)" offset="0.660156"/><stop stop-opacity="1" stop-color="rgb(37.800598%, 24.406433%, 0.718689%)" offset="0.664062"/><stop stop-opacity="1" stop-color="rgb(37.600708%, 24.328613%, 0.6073%)" offset="0.667969"/><stop stop-opacity="1" stop-color="rgb(37.400818%, 24.250793%, 0.497437%)" offset="0.671875"/><stop stop-opacity="1" stop-color="rgb(37.200928%, 24.172974%, 0.387573%)" offset="0.675781"/><stop stop-opacity="1" stop-color="rgb(37.001038%, 24.095154%, 0.27771%)" offset="0.679688"/><stop stop-opacity="1" stop-color="rgb(36.801147%, 24.017334%, 0.166321%)" offset="0.683594"/><stop stop-opacity="1" stop-color="rgb(36.601257%, 23.939514%, 0.0564575%)" offset="0.6875"/><stop stop-opacity="1" stop-color="rgb(37.187195%, 24.526978%, 0.523376%)" offset="0.691406"/><stop stop-opacity="1" stop-color="rgb(37.773132%, 25.114441%, 0.991821%)" offset="0.695312"/><stop stop-opacity="1" stop-color="rgb(38.630676%, 25.932312%, 1.660156%)" offset="0.699219"/><stop stop-opacity="1" stop-color="rgb(39.48822%, 26.750183%, 2.328491%)" offset="0.703125"/><stop stop-opacity="1" stop-color="rgb(40.345764%, 27.568054%, 2.996826%)" offset="0.707031"/><stop stop-opacity="1" stop-color="rgb(41.203308%, 28.385925%, 3.665161%)" offset="0.710938"/><stop stop-opacity="1" stop-color="rgb(42.060852%, 29.203796%, 4.33197%)" offset="0.714844"/><stop stop-opacity="1" stop-color="rgb(42.918396%, 30.021667%, 5.000305%)" offset="0.71875"/><stop stop-opacity="1" stop-color="rgb(43.77594%, 30.839539%, 5.66864%)" offset="0.722656"/><stop stop-opacity="1" stop-color="rgb(44.633484%, 31.658936%, 6.336975%)" offset="0.726562"/><stop stop-opacity="1" stop-color="rgb(45.491028%, 32.476807%, 7.00531%)" offset="0.730469"/><stop stop-opacity="1" stop-color="rgb(46.348572%, 33.294678%, 7.673645%)" offset="0.734375"/><stop stop-opacity="1" stop-color="rgb(47.206116%, 34.112549%, 8.34198%)" offset="0.738281"/><stop stop-opacity="1" stop-color="rgb(48.06366%, 34.93042%, 9.010315%)" offset="0.742188"/><stop stop-opacity="1" stop-color="rgb(48.921204%, 35.748291%, 9.677124%)" offset="0.746094"/><stop stop-opacity="1" stop-color="rgb(49.778748%, 36.566162%, 10.345459%)" offset="0.75"/><stop stop-opacity="1" stop-color="rgb(50.636292%, 37.384033%, 11.013794%)" offset="0.753906"/><stop stop-opacity="1" stop-color="rgb(51.493835%, 38.201904%, 11.682129%)" offset="0.757812"/><stop stop-opacity="1" stop-color="rgb(52.351379%, 39.019775%, 12.350464%)" offset="0.761719"/><stop stop-opacity="1" stop-color="rgb(53.208923%, 39.837646%, 13.018799%)" offset="0.765625"/><stop stop-opacity="1" stop-color="rgb(54.066467%, 40.655518%, 13.687134%)" offset="0.769531"/><stop stop-opacity="1" stop-color="rgb(54.925537%, 41.473389%, 14.355469%)" offset="0.773438"/><stop stop-opacity="1" stop-color="rgb(55.783081%, 42.29126%, 15.022278%)" offset="0.777344"/><stop stop-opacity="1" stop-color="rgb(56.640625%, 43.109131%, 15.690613%)" offset="0.78125"/><stop stop-opacity="1" stop-color="rgb(57.498169%, 43.927002%, 16.358948%)" offset="0.785156"/><stop stop-opacity="1" stop-color="rgb(58.355713%, 44.746399%, 17.027283%)" offset="0.789062"/><stop stop-opacity="1" stop-color="rgb(59.213257%, 45.56427%, 17.695618%)" offset="0.792969"/><stop stop-opacity="1" stop-color="rgb(60.070801%, 46.382141%, 18.363953%)" offset="0.796875"/><stop stop-opacity="1" stop-color="rgb(60.928345%, 47.200012%, 19.032288%)" offset="0.800781"/><stop stop-opacity="1" stop-color="rgb(61.785889%, 48.017883%, 19.700623%)" offset="0.804688"/><stop stop-opacity="1" stop-color="rgb(62.643433%, 48.835754%, 20.367432%)" offset="0.808594"/><stop stop-opacity="1" stop-color="rgb(63.500977%, 49.653625%, 21.035767%)" offset="0.8125"/><stop stop-opacity="1" stop-color="rgb(64.358521%, 50.471497%, 21.704102%)" offset="0.816406"/><stop stop-opacity="1" stop-color="rgb(65.216064%, 51.289368%, 22.372437%)" offset="0.820312"/><stop stop-opacity="1" stop-color="rgb(66.073608%, 52.107239%, 23.040771%)" offset="0.824219"/><stop stop-opacity="1" stop-color="rgb(66.931152%, 52.92511%, 23.709106%)" offset="0.828125"/><stop stop-opacity="1" stop-color="rgb(67.788696%, 53.742981%, 24.377441%)" offset="0.832031"/><stop stop-opacity="1" stop-color="rgb(68.64624%, 54.560852%, 25.045776%)" offset="0.835938"/><stop stop-opacity="1" stop-color="rgb(69.503784%, 55.378723%, 25.712585%)" offset="0.839844"/><stop stop-opacity="1" stop-color="rgb(70.361328%, 56.196594%, 26.38092%)" offset="0.84375"/><stop stop-opacity="1" stop-color="rgb(71.218872%, 57.014465%, 27.049255%)" offset="0.847656"/><stop stop-opacity="1" stop-color="rgb(72.076416%, 57.833862%, 27.71759%)" offset="0.851562"/><stop stop-opacity="1" stop-color="rgb(72.93396%, 58.651733%, 28.385925%)" offset="0.855469"/><stop stop-opacity="1" stop-color="rgb(73.791504%, 59.469604%, 29.05426%)" offset="0.859375"/><stop stop-opacity="1" stop-color="rgb(74.649048%, 60.287476%, 29.722595%)" offset="0.863281"/><stop stop-opacity="1" stop-color="rgb(75.506592%, 61.105347%, 30.39093%)" offset="0.867188"/><stop stop-opacity="1" stop-color="rgb(76.364136%, 61.923218%, 31.059265%)" offset="0.871094"/><stop stop-opacity="1" stop-color="rgb(77.22168%, 62.741089%, 31.7276%)" offset="0.875"/><stop stop-opacity="1" stop-color="rgb(78.079224%, 63.55896%, 32.394409%)" offset="0.878906"/><stop stop-opacity="1" stop-color="rgb(78.936768%, 64.376831%, 33.062744%)" offset="0.882812"/><stop stop-opacity="1" stop-color="rgb(79.794312%, 65.194702%, 33.731079%)" offset="0.886719"/><stop stop-opacity="1" stop-color="rgb(80.651855%, 66.012573%, 34.399414%)" offset="0.890625"/><stop stop-opacity="1" stop-color="rgb(81.509399%, 66.830444%, 35.067749%)" offset="0.894531"/><stop stop-opacity="1" stop-color="rgb(82.366943%, 67.648315%, 35.736084%)" offset="0.898438"/><stop stop-opacity="1" stop-color="rgb(83.224487%, 68.466187%, 36.404419%)" offset="0.902344"/><stop stop-opacity="1" stop-color="rgb(84.082031%, 69.284058%, 37.072754%)" offset="0.90625"/><stop stop-opacity="1" stop-color="rgb(84.939575%, 70.101929%, 37.739563%)" offset="0.910156"/><stop stop-opacity="1" stop-color="rgb(85.797119%, 70.921326%, 38.407898%)" offset="0.914062"/><stop stop-opacity="1" stop-color="rgb(85.993958%, 71.003723%, 38.093567%)" offset="0.917969"/><stop stop-opacity="1" stop-color="rgb(86.192322%, 71.086121%, 37.779236%)" offset="0.921875"/><stop stop-opacity="1" stop-color="rgb(86.116028%, 70.864868%, 37.059021%)" offset="0.925781"/><stop stop-opacity="1" stop-color="rgb(86.04126%, 70.643616%, 36.338806%)" offset="0.929688"/><stop stop-opacity="1" stop-color="rgb(85.966492%, 70.422363%, 35.617065%)" offset="0.933594"/><stop stop-opacity="1" stop-color="rgb(85.891724%, 70.201111%, 34.896851%)" offset="0.9375"/><stop stop-opacity="1" stop-color="rgb(85.81543%, 69.979858%, 34.176636%)" offset="0.941406"/><stop stop-opacity="1" stop-color="rgb(85.740662%, 69.758606%, 33.456421%)" offset="0.945312"/><stop stop-opacity="1" stop-color="rgb(85.664368%, 69.535828%, 32.73468%)" offset="0.949219"/><stop stop-opacity="1" stop-color="rgb(85.5896%, 69.314575%, 32.014465%)" offset="0.953125"/><stop stop-opacity="1" stop-color="rgb(85.513306%, 69.093323%, 31.29425%)" offset="0.957031"/><stop stop-opacity="1" stop-color="rgb(85.438538%, 68.87207%, 30.574036%)" offset="0.960938"/><stop stop-opacity="1" stop-color="rgb(85.36377%, 68.650818%, 29.852295%)" offset="0.964844"/><stop stop-opacity="1" stop-color="rgb(85.289001%, 68.429565%, 29.13208%)" offset="0.96875"/><stop stop-opacity="1" stop-color="rgb(85.212708%, 68.208313%, 28.411865%)" offset="0.972656"/><stop stop-opacity="1" stop-color="rgb(85.137939%, 67.987061%, 27.69165%)" offset="0.976562"/><stop stop-opacity="1" stop-color="rgb(85.061646%, 67.765808%, 26.96991%)" offset="0.980469"/><stop stop-opacity="1" stop-color="rgb(84.986877%, 67.544556%, 26.249695%)" offset="0.984375"/><stop stop-opacity="1" stop-color="rgb(84.910583%, 67.323303%, 25.52948%)" offset="0.988281"/><stop stop-opacity="1" stop-color="rgb(84.835815%, 67.102051%, 24.809265%)" offset="0.992188"/><stop stop-opacity="1" stop-color="rgb(84.767151%, 66.900635%, 24.153137%)" offset="0.996094"/><stop stop-opacity="1" stop-color="rgb(84.698486%, 66.699219%, 23.498535%)" offset="1"/></linearGradient></defs><g clip-path="url(#4a714fc570)"><g clip-path="url(#d3f53fd98c)"><path fill="url(#790143df39)" d="M 58.574219 54.476562 L 58.574219 320.492188 L 337.46875 320.492188 L 337.46875 54.476562 Z M 58.574219 54.476562 " fill-rule="nonzero"/></g></g><g fill="#814b14" fill-opacity="1"><g transform="translate(128.53975, 170.98471)"><g><path d="M 11.550781 17.6875 C 10.648438 17.027344 10.589844 15.882812 11.070312 14.800781 C 11.371094 14.257812 11.25 14.140625 11.851562 14.019531 C 11.671875 14.441406 11.550781 17.027344 11.550781 17.6875 Z M 16.363281 -38.203125 L 11.128906 -35.738281 C 9.386719 -34.835938 -2.40625 -28.578125 -2.40625 -26.832031 C -2.40625 -26.171875 -2.046875 -25.929688 -1.5625 -25.929688 C -1.203125 -25.929688 -0.78125 -26.113281 -0.421875 -26.292969 C 0.0585938 -26.59375 0.121094 -26.714844 0.542969 -27.015625 C 1.023438 -27.316406 1.324219 -27.554688 1.746094 -27.796875 C 3.25 -28.820312 4.753906 -29.722656 6.316406 -30.625 L 13.476562 -34.355469 C 14.320312 -34.65625 15.160156 -35.078125 15.945312 -35.496094 L 14.257812 -18.652344 C 14.019531 -16.664062 13.839844 -14.859375 13.839844 -12.816406 L 9.386719 -10.710938 C 8.605469 -10.347656 5.777344 -8.722656 5.777344 -7.820312 C 5.777344 -7.21875 6.015625 -7.039062 6.378906 -7.039062 C 7.160156 -7.039062 8.363281 -7.941406 8.421875 -7.941406 L 13.476562 -10.527344 L 12.695312 0.179688 C 12.632812 0.84375 12.695312 1.445312 12.695312 2.046875 C 12.632812 2.886719 12.515625 2.769531 12.515625 3.730469 C 12.453125 4.691406 12.152344 10.289062 11.972656 10.890625 C 11.492188 12.394531 9.023438 12.03125 9.023438 16.726562 C 9.023438 17.867188 10.527344 20.035156 11.792969 20.035156 C 12.632812 20.035156 13.417969 19.132812 13.65625 16.425781 C 13.777344 14.800781 13.65625 12.09375 14.621094 11.429688 C 15.042969 11.191406 15.703125 10.890625 16.363281 10.589844 C 17.085938 10.167969 17.507812 9.988281 18.289062 9.6875 C 25.691406 6.4375 35.496094 5.535156 43.621094 5.535156 C 45.785156 5.535156 47.710938 5.65625 49.035156 5.894531 C 51.621094 6.316406 51.261719 6.980469 51.863281 7.398438 C 52.464844 6.617188 52.523438 7.21875 52.523438 5.957031 C 52.523438 4.210938 48.671875 3.671875 44.039062 3.671875 C 37.484375 3.671875 29.421875 4.691406 27.976562 4.992188 C 24.367188 5.535156 20.695312 6.558594 17.449219 8 C 16.546875 8.363281 15.222656 9.324219 14.257812 9.386719 L 16.183594 -11.671875 C 16.90625 -11.730469 17.507812 -12.03125 18.109375 -12.273438 C 21.359375 -13.539062 29.179688 -15.945312 32.25 -15.945312 C 32.789062 -15.945312 32.910156 -15.644531 32.96875 -15.160156 C 33.511719 -15.222656 33.511719 -15.28125 33.933594 -15.34375 C 34.292969 -16.90625 34.113281 -17.75 32.066406 -17.75 C 31.464844 -17.75 30.804688 -17.6875 29.960938 -17.566406 C 27.734375 -17.328125 22.863281 -15.945312 20.757812 -15.28125 C 19.554688 -14.921875 17.265625 -13.898438 16.363281 -13.777344 C 16.363281 -14.980469 16.664062 -16.425781 16.726562 -17.507812 L 18.652344 -36.398438 C 19.375 -37.722656 35.4375 -42.65625 37.121094 -43.136719 C 45.125 -45.0625 48.011719 -45.304688 56.195312 -45.304688 C 57.578125 -45.304688 58.238281 -45.003906 59.261719 -44.824219 C 59.082031 -43.738281 57.9375 -42.597656 57.519531 -41.453125 C 59.140625 -41.632812 61.1875 -42.71875 61.1875 -45.003906 C 61.1875 -46.988281 58 -47.589844 54.027344 -47.589844 C 48.371094 -47.589844 40.972656 -46.328125 39.046875 -45.847656 C 33.269531 -44.761719 26.714844 -42.476562 21.359375 -40.3125 C 20.636719 -40.070312 19.492188 -39.46875 18.832031 -39.347656 C 19.132812 -42.835938 19.375 -45.125 19.375 -48.972656 C 19.375 -49.996094 18.890625 -50.238281 18.230469 -50.597656 C 16.964844 -49.875 17.386719 -49.875 17.207031 -48.191406 C 17.148438 -47.167969 16.90625 -45.726562 16.90625 -44.824219 C 16.90625 -42.597656 16.363281 -40.492188 16.363281 -38.203125 Z M 16.363281 -38.203125 "/></g></g></g><g fill="#814b14" fill-opacity="1"><g transform="translate(182.988252, 170.98471)"><g><path d="M 0.0585938 -6.558594 C 0.0585938 -4.511719 -0.242188 -1.082031 1.324219 0.421875 C 1.863281 0.960938 2.40625 1.203125 2.949219 1.203125 C 6.195312 1.203125 9.746094 -7.21875 10.648438 -9.207031 C 11.25 -10.527344 13.296875 -14.558594 11.730469 -14.558594 C 10.589844 -14.558594 10.046875 -12.273438 9.445312 -11.128906 C 8.484375 -9.085938 5.414062 -1.683594 3.007812 -1.082031 C 2.226562 -4.511719 2.769531 -6.859375 3.371094 -10.410156 C 3.730469 -12.875 4.632812 -15.042969 3.972656 -16.425781 C 3.550781 -16.484375 3.550781 -16.605469 3.007812 -16.605469 C 1.203125 -16.605469 0.0585938 -9.023438 0.0585938 -6.558594 Z M 0.0585938 -6.558594 "/></g></g></g><g fill="#814b14" fill-opacity="1"><g transform="translate(195.923531, 170.98471)"><g><path d="M 2.769531 -10.890625 C 3.1875 -12.394531 5.175781 -14.742188 6.796875 -15.042969 C 6.617188 -13.117188 4.273438 -11.671875 2.769531 -10.890625 Z M 0.0585938 -9.445312 C 0.0585938 -7.761719 0 -6.257812 1.445312 -4.8125 C 2.464844 -3.789062 3.671875 -3.371094 4.933594 -3.371094 C 8.605469 -3.371094 12.753906 -7.039062 14.980469 -9.265625 C 15.523438 -9.925781 15.523438 -9.988281 15.34375 -10.890625 C 13.539062 -10.890625 14.5 -10.648438 12.03125 -8.722656 C 11.613281 -8.421875 11.429688 -8.183594 10.949219 -7.820312 C 9.746094 -6.917969 7.21875 -5.175781 5.113281 -5.175781 C 4.390625 -5.175781 3.671875 -5.414062 3.128906 -5.957031 C 2.105469 -6.980469 2.226562 -7.941406 2.226562 -9.207031 C 4.089844 -9.324219 6.257812 -11.070312 7.21875 -12.152344 C 9.085938 -14.5 9.085938 -16.90625 6.4375 -16.90625 C 3.550781 -16.90625 0.0585938 -12.453125 0.0585938 -9.445312 Z M 0.0585938 -9.445312 "/></g></g></g><g fill="#814b14" fill-opacity="1"><g transform="translate(208.979133, 170.98471)"><g><path d="M 1.683594 -3.128906 C 4.03125 -3.128906 6.4375 -10.828125 8.421875 -12.152344 C 8.964844 -11.011719 8.121094 -8.605469 9.324219 -4.992188 C 9.867188 -3.371094 10.890625 -1.746094 12.753906 -1.746094 C 13.117188 -1.746094 13.476562 -1.804688 13.898438 -1.925781 C 15.28125 -2.285156 17.207031 -4.691406 18.050781 -5.777344 C 18.410156 -6.257812 21.960938 -10.710938 19.613281 -10.710938 C 18.53125 -10.710938 15.34375 -3.550781 12.933594 -3.550781 C 10.710938 -3.550781 10.589844 -8.90625 10.589844 -10.410156 L 10.226562 -13.777344 C 9.925781 -14.441406 9.507812 -14.742188 9.085938 -14.742188 C 7.640625 -14.742188 5.835938 -11.671875 5.476562 -11.011719 L 2.585938 -6.617188 C 2.585938 -11.3125 6.496094 -16.964844 3.851562 -16.964844 C 1.5625 -16.964844 -2.164062 -3.128906 1.683594 -3.128906 Z M 1.683594 -3.128906 "/></g></g></g><g fill="#814b14" fill-opacity="1"><g transform="translate(227.028364, 170.98471)"><g><path d="M -16.90625 -26.832031 C -16.90625 -25.992188 -16.304688 -25.8125 -15.644531 -25.8125 C -15.28125 -25.8125 -14.921875 -25.871094 -14.621094 -25.929688 C -14.078125 -27.074219 -14.679688 -26.832031 -13.175781 -27.433594 C -12.453125 -27.734375 -11.914062 -28.15625 -11.191406 -28.457031 C -7.460938 -29.902344 -4.03125 -30.925781 -0.0585938 -31.886719 C 0.542969 -32.066406 1.925781 -32.308594 2.285156 -32.429688 L 1.746094 -26.832031 C 1.683594 -26.050781 1.625 -24.726562 1.503906 -23.945312 C 1.203125 -22.199219 1.144531 -14.078125 1.144531 -11.792969 L 0.960938 -8.964844 C 0.960938 -4.574219 0.78125 2.585938 1.144531 6.917969 C 1.144531 8.363281 1.203125 10.527344 2.769531 10.527344 C 4.332031 10.527344 3.429688 6.378906 3.429688 4.992188 C 3.308594 2.347656 3.371094 -9.6875 3.550781 -11.492188 C 3.671875 -12.753906 3.550781 -15.460938 3.550781 -17.207031 C 3.550781 -18.050781 3.730469 -18.050781 3.730469 -18.832031 C 3.730469 -19.433594 3.671875 -20.15625 3.730469 -20.695312 L 4.933594 -33.03125 C 6.378906 -33.332031 15.523438 -35.078125 18.832031 -35.078125 C 19.253906 -35.078125 19.554688 -35.078125 19.792969 -35.015625 C 20.515625 -34.835938 20.335938 -35.078125 20.515625 -34.472656 C 22.800781 -34.472656 22.082031 -36.882812 19.253906 -36.882812 C 15.582031 -36.882812 12.03125 -36.28125 8.542969 -35.617188 C 7.640625 -35.496094 6.378906 -35.136719 5.414062 -35.136719 C 5.414062 -37.0625 6.617188 -35.496094 6.617188 -37.0625 C 6.617188 -37.421875 6.558594 -37.664062 6.558594 -37.84375 C 6.496094 -38.445312 6.617188 -37.964844 6.617188 -38.6875 C 6.617188 -39.648438 6.136719 -40.429688 5.476562 -40.429688 C 4.691406 -40.429688 3.730469 -39.347656 3.128906 -36.097656 C 2.707031 -34.054688 2.886719 -34.59375 0.359375 -33.933594 C -3.070312 -32.96875 -16.90625 -29.539062 -16.90625 -26.832031 Z M -16.90625 -26.832031 "/></g></g></g><g fill="#814b14" fill-opacity="1"><g transform="translate(125.91475, 236.234706)"><g><path d="M 22.140625 1.503906 C 22.140625 0.242188 21.839844 -0.660156 21.839844 -3.070312 C 21.839844 -7.28125 23.285156 -18.351562 21.960938 -20.636719 C 21.71875 -21.179688 21.179688 -21.480469 20.578125 -21.480469 C 20.15625 -21.480469 19.734375 -21.359375 19.375 -21.117188 C 18.109375 -20.277344 16.964844 -17.929688 16.183594 -16.425781 C 11.914062 -7.761719 9.566406 3.730469 6.859375 13.597656 L 5.414062 17.929688 C 5.113281 18.589844 5.113281 18.890625 4.453125 19.074219 L 3.851562 16.125 C 2.226562 6.378906 3.609375 -9.6875 4.875 -18.46875 C 5.957031 -25.75 6.738281 -30.023438 8.605469 -36.882812 C 8.964844 -38.085938 9.925781 -40.3125 8.242188 -40.3125 C 5.835938 -40.3125 2.828125 -21.898438 2.648438 -20.695312 C 2.105469 -16.964844 1.625 -13.296875 1.203125 -9.507812 L 0.601562 2.648438 C 0.601562 6.558594 0.960938 21.417969 4.453125 21.417969 C 5.65625 21.417969 6.015625 20.816406 6.558594 19.855469 C 7.640625 17.207031 8.542969 14.621094 9.207031 11.851562 C 10.226562 8.304688 11.128906 4.332031 12.09375 0.542969 C 13.355469 -4.632812 16.125 -14.140625 19.433594 -18.589844 C 19.855469 -19.132812 19.792969 -19.3125 20.515625 -19.492188 C 20.515625 -18.589844 20.636719 -18.050781 20.636719 -17.566406 L 19.734375 -5.535156 C 19.554688 -2.886719 19.554688 3.789062 22.140625 3.789062 C 25.328125 3.789062 28.820312 -9.808594 29.84375 -12.515625 C 31.464844 -16.484375 32.367188 -19.855469 34.355469 -24.246094 C 36.28125 -28.578125 37.363281 -31.046875 39.828125 -35.078125 C 40.730469 -36.640625 42.054688 -38.6875 43.621094 -39.46875 C 45.003906 -36.460938 42.117188 -21.539062 41.574219 -18.167969 C 40.25 -10.289062 39.707031 -4.992188 38.746094 2.585938 L 36.941406 29.421875 C 37 30.144531 37 30.503906 37.0625 31.527344 C 37.121094 32.488281 37.664062 33.089844 38.144531 33.089844 C 38.566406 33.089844 38.988281 32.609375 38.988281 31.527344 C 38.988281 29.300781 38.925781 26.53125 39.105469 24.367188 C 40.070312 15.703125 40.492188 7.339844 41.816406 -1.5625 L 45.542969 -26.414062 C 45.847656 -28.457031 48.3125 -41.632812 43.621094 -41.632812 C 39.40625 -41.632812 32.488281 -24.910156 31.226562 -21.71875 C 28.820312 -15.582031 27.132812 -9.925781 24.847656 -3.972656 C 24.367188 -2.464844 23.222656 0.84375 22.140625 1.503906 Z M 22.140625 1.503906 "/></g></g></g><g fill="#814b14" fill-opacity="1"><g transform="translate(171.940276, 236.234706)"><g><path d="M 0 -6.078125 C 0 -3.910156 0.179688 -2.886719 2.40625 -2.886719 C 4.152344 -2.886719 6.015625 -8.542969 7.160156 -9.324219 C 7.160156 -6.738281 9.085938 -3.609375 12.09375 -3.609375 C 13.117188 -3.609375 14.257812 -3.972656 15.460938 -4.8125 L 17.265625 -6.257812 C 20.335938 -9.207031 19.976562 -10.710938 19.074219 -10.710938 C 18.710938 -10.710938 18.289062 -10.527344 17.988281 -10.109375 C 17.148438 -9.207031 16.964844 -8.664062 15.824219 -7.640625 C 14.5 -6.316406 13.234375 -5.59375 12.09375 -5.59375 C 10.828125 -5.59375 9.746094 -6.558594 9.265625 -8.722656 C 8.722656 -11.011719 9.746094 -13.71875 7.640625 -13.71875 C 6.859375 -13.71875 4.390625 -8.605469 3.1875 -6.738281 L 2.707031 -6.015625 C 2.40625 -5.65625 2.585938 -5.894531 2.40625 -5.714844 C 2.40625 -7.699219 3.25 -9.988281 4.03125 -11.25 C 5.777344 -14.257812 6.980469 -15.101562 7.882812 -15.101562 C 9.023438 -15.101562 9.746094 -13.71875 10.589844 -13.71875 C 12.152344 -13.71875 10.589844 -17.148438 7.761719 -17.148438 C 3.550781 -17.148438 0 -9.507812 0 -6.078125 Z M 0 -6.078125 "/></g></g></g><g fill="#814b14" fill-opacity="1"><g transform="translate(189.387857, 236.234706)"><g><path d="M 0.722656 9.925781 C 0.722656 7.519531 2.464844 4.8125 3.910156 3.070312 C 4.632812 2.226562 6.078125 0.421875 7.039062 -0.121094 C 7.039062 1.5625 7.097656 2.886719 6.679688 4.273438 C 6.136719 6.257812 4.8125 9.144531 3.1875 10.347656 C 2.769531 10.710938 2.046875 11.191406 1.503906 11.191406 C 1.082031 11.191406 0.722656 10.828125 0.722656 9.925781 Z M 0.179688 -9.746094 C 0.179688 -6.558594 4.390625 -5.535156 6.257812 -2.105469 C 5.355469 -0.660156 -1.203125 4.511719 -1.203125 9.925781 C -1.203125 12.09375 0 13.234375 1.683594 13.234375 C 3.488281 13.234375 5.777344 11.851562 7.519531 8.90625 C 11.550781 2.046875 9.085938 -1.445312 9.324219 -2.285156 C 9.445312 -2.769531 13.71875 -5.957031 14.378906 -6.316406 L 18.46875 -9.144531 C 19.855469 -9.925781 19.976562 -10.949219 19.011719 -10.949219 C 18.46875 -10.949219 17.6875 -10.710938 16.664062 -9.988281 L 11.070312 -6.078125 C 10.167969 -5.292969 9.324219 -4.632812 8.363281 -3.972656 C 5.234375 -8.664062 0.722656 -8.484375 3.910156 -12.09375 C 4.8125 -13.117188 4.632812 -12.816406 6.078125 -13.175781 C 6.4375 -14.679688 5.894531 -15.28125 5.054688 -15.28125 C 3.308594 -15.28125 0.179688 -12.816406 0.179688 -9.746094 Z M 0.179688 -9.746094 "/></g></g></g><g fill="#814b14" fill-opacity="1"><g transform="translate(206.775277, 236.234706)"><g><path d="M -16.90625 -26.832031 C -16.90625 -25.992188 -16.304688 -25.8125 -15.644531 -25.8125 C -15.28125 -25.8125 -14.921875 -25.871094 -14.621094 -25.929688 C -14.078125 -27.074219 -14.679688 -26.832031 -13.175781 -27.433594 C -12.453125 -27.734375 -11.914062 -28.15625 -11.191406 -28.457031 C -7.460938 -29.902344 -4.03125 -30.925781 -0.0585938 -31.886719 C 0.542969 -32.066406 1.925781 -32.308594 2.285156 -32.429688 L 1.746094 -26.832031 C 1.683594 -26.050781 1.625 -24.726562 1.503906 -23.945312 C 1.203125 -22.199219 1.144531 -14.078125 1.144531 -11.792969 L 0.960938 -8.964844 C 0.960938 -4.574219 0.78125 2.585938 1.144531 6.917969 C 1.144531 8.363281 1.203125 10.527344 2.769531 10.527344 C 4.332031 10.527344 3.429688 6.378906 3.429688 4.992188 C 3.308594 2.347656 3.371094 -9.6875 3.550781 -11.492188 C 3.671875 -12.753906 3.550781 -15.460938 3.550781 -17.207031 C 3.550781 -18.050781 3.730469 -18.050781 3.730469 -18.832031 C 3.730469 -19.433594 3.671875 -20.15625 3.730469 -20.695312 L 4.933594 -33.03125 C 6.378906 -33.332031 15.523438 -35.078125 18.832031 -35.078125 C 19.253906 -35.078125 19.554688 -35.078125 19.792969 -35.015625 C 20.515625 -34.835938 20.335938 -35.078125 20.515625 -34.472656 C 22.800781 -34.472656 22.082031 -36.882812 19.253906 -36.882812 C 15.582031 -36.882812 12.03125 -36.28125 8.542969 -35.617188 C 7.640625 -35.496094 6.378906 -35.136719 5.414062 -35.136719 C 5.414062 -37.0625 6.617188 -35.496094 6.617188 -37.0625 C 6.617188 -37.421875 6.558594 -37.664062 6.558594 -37.84375 C 6.496094 -38.445312 6.617188 -37.964844 6.617188 -38.6875 C 6.617188 -39.648438 6.136719 -40.429688 5.476562 -40.429688 C 4.691406 -40.429688 3.730469 -39.347656 3.128906 -36.097656 C 2.707031 -34.054688 2.886719 -34.59375 0.359375 -33.933594 C -3.070312 -32.96875 -16.90625 -29.539062 -16.90625 -26.832031 Z M -16.90625 -26.832031 "/></g></g></g><g fill="#814b14" fill-opacity="1"><g transform="translate(213.754307, 236.234706)"><g><path d="M 2.769531 -10.890625 C 3.1875 -12.394531 5.175781 -14.742188 6.796875 -15.042969 C 6.617188 -13.117188 4.273438 -11.671875 2.769531 -10.890625 Z M 0.0585938 -9.445312 C 0.0585938 -7.761719 0 -6.257812 1.445312 -4.8125 C 2.464844 -3.789062 3.671875 -3.371094 4.933594 -3.371094 C 8.605469 -3.371094 12.753906 -7.039062 14.980469 -9.265625 C 15.523438 -9.925781 15.523438 -9.988281 15.34375 -10.890625 C 13.539062 -10.890625 14.5 -10.648438 12.03125 -8.722656 C 11.613281 -8.421875 11.429688 -8.183594 10.949219 -7.820312 C 9.746094 -6.917969 7.21875 -5.175781 5.113281 -5.175781 C 4.390625 -5.175781 3.671875 -5.414062 3.128906 -5.957031 C 2.105469 -6.980469 2.226562 -7.941406 2.226562 -9.207031 C 4.089844 -9.324219 6.257812 -11.070312 7.21875 -12.152344 C 9.085938 -14.5 9.085938 -16.90625 6.4375 -16.90625 C 3.550781 -16.90625 0.0585938 -12.453125 0.0585938 -9.445312 Z M 0.0585938 -9.445312 "/></g></g></g><g fill="#814b14" fill-opacity="1"><g transform="translate(226.809909, 236.234706)"><g><path d="M 0.84375 -0.242188 C 2.707031 -0.242188 1.984375 -2.285156 2.347656 -3.851562 C 2.585938 -5.292969 3.128906 -6.496094 3.730469 -7.519531 C 4.691406 -9.085938 4.992188 -9.085938 7.28125 -9.085938 C 7.941406 -9.085938 8.84375 -9.023438 9.625 -9.023438 C 10.828125 -9.023438 11.792969 -9.144531 11.792969 -9.988281 C 11.792969 -10.769531 9.925781 -10.890625 8.183594 -10.890625 C 7.160156 -10.890625 6.136719 -10.828125 5.59375 -10.828125 C 3.730469 -10.828125 3.371094 -9.6875 2.464844 -9.085938 C 2.464844 -9.867188 2.585938 -9.808594 2.585938 -10.648438 C 2.585938 -11.25 2.585938 -11.972656 2.648438 -12.574219 C 2.828125 -14.257812 3.128906 -15.402344 1.503906 -15.402344 C 0.179688 -15.402344 0.0585938 -9.144531 0.0585938 -8.0625 C 0.121094 -6.558594 0.0585938 -5.054688 0.121094 -3.609375 C 0.121094 -3.1875 -0.359375 -0.242188 0.84375 -0.242188 Z M 0.84375 -0.242188 "/></g></g></g></svg>